# xmcd
#
# Track frame offsets:
#	150
#	15843
#	29495
#	50280
#	68017
#	90942
#	113833
#	130006
#	152219
#	172530
#
# Disc length: 2432 seconds
#
# Revision: 1
# Processed by: cddbd v1.5.1PL2 Copyright (c) Steve Scherf et al.
# Submitted via: audiograbber 1.83.01
#
DISCID=65097e0a
DTITLE=Jo Hope - Just A Man After All
DYEAR=2004
DGENRE=
TTITLE0=Just A Man After All
TTITLE1=Way Back When
TTITLE2=No-One Here
TTITLE3=So Many Things
TTITLE4=Far Away From You
TTITLE5=Don´t Matter What I Do
TTITLE6=What About Me
TTITLE7=Friends In Music
TTITLE8=Johnny Cash Died Yesterday
TTITLE9=Cold
EXTD=
EXTT0=
EXTT1=
EXTT2=
EXTT3=
EXTT4=
EXTT5=
EXTT6=
EXTT7=
EXTT8=
EXTT9=
PLAYORDER=
